<?xml version="1.0" encoding="iso-8859-1"?>
<!-- Generator: Adobe Illustrator 19.0.0, SVG Export Plug-In . SVG Version: 6.00 Build 0)  -->
<svg version="1.1" id="Layer_1" xmlns="http://www.w3.org/2000/svg" xmlns:xlink="http://www.w3.org/1999/xlink" x="0px" y="0px"
	 viewBox="0 0 512 512" style="enable-background:new 0 0 512 512;" xml:space="preserve">
<g>
	<g>
		<path d="M309.24,28.735h-7.837h-40.058c-71.267,0-129.247,57.979-129.247,129.247v7.837h54.021v21.083h-58.397v-16.15H0v47.974
			h127.721v-16.151h58.397v36.757h30.631v28.921h15.673v-28.921h30.631v-58.564h-15.673v42.891h-45.589v-57.839h99.61v301.773
			H196.134c-18.174,0-33.396-12.883-37.014-29.995h127.183v-15.673l-143.673,0.001v7.837c0,29.502,24.002,53.504,53.505,53.504H512
			V28.735H309.24z M112.048,203.052H15.673v-16.627h96.374V203.052z M301.402,150.145l-153.364-0.001
			c4.039-58.983,53.315-105.735,113.306-105.735h40.058V150.145z M496.327,467.592h-179.25V44.408h179.25V467.592z"/>
	</g>
</g>
<g>
	<g>
		<path d="M406.701,73.665c-20.454,0-37.094,16.64-37.094,37.094c0,20.454,16.64,37.094,37.094,37.094
			c20.454,0,37.094-16.64,37.094-37.094C443.795,90.305,427.155,73.665,406.701,73.665z M406.701,132.18
			c-11.812,0-21.42-9.609-21.42-21.42s9.609-21.42,21.42-21.42c11.812,0,21.42,9.609,21.42,21.42S418.513,132.18,406.701,132.18z"/>
	</g>
</g>
<g>
	<g>
		<path d="M139.184,300.35c-15.961,0-28.947,12.986-28.947,28.947v10.075c0,15.961,12.985,28.946,28.947,28.946v-15.673
			c-7.318,0-13.273-5.954-13.273-13.272v-10.075c0-7.318,5.954-13.273,13.273-13.273h12.748v35.019
			c0,36.067,29.342,65.409,65.409,65.409s65.409-29.342,65.409-65.409V300.35H139.184z M267.073,351.042
			c0,27.423-22.311,49.735-49.735,49.735s-49.735-22.312-49.735-49.735v-35.019h0.001h99.469V351.042z"/>
	</g>
</g>
<g>
</g>
<g>
</g>
<g>
</g>
<g>
</g>
<g>
</g>
<g>
</g>
<g>
</g>
<g>
</g>
<g>
</g>
<g>
</g>
<g>
</g>
<g>
</g>
<g>
</g>
<g>
</g>
<g>
</g>
</svg>
