<?xml version="1.0" encoding="iso-8859-1"?>
<!-- Generator: Adobe Illustrator 19.0.0, SVG Export Plug-In . SVG Version: 6.00 Build 0)  -->
<svg version="1.1" id="Layer_1" xmlns="http://www.w3.org/2000/svg" xmlns:xlink="http://www.w3.org/1999/xlink" x="0px" y="0px"
	 viewBox="0 0 512 512" style="enable-background:new 0 0 512 512;" xml:space="preserve">
<g>
	<g>
		<path d="M409.655,158.654c-3.501-36.529-31.107-66.272-67.562-72.213c-13.562-27.843-41.726-45.59-72.971-45.59
			c-17.571,0-34.294,5.524-48.36,15.977l9.348,12.581c11.343-8.428,24.834-12.884,39.012-12.884
			c26.444,0,50.154,15.755,60.402,40.138l1.792,4.264l4.6,0.491c30.676,3.277,54.39,27.265,57.966,57.236H144.363
			c3.269-27.404,23.379-49.789,50.249-55.93v41.472h15.673V49.968c10.293-3.319,17.763-12.985,17.763-24.368
			c0-14.116-11.484-25.6-25.6-25.6s-25.6,11.484-25.6,25.6c0,11.383,7.47,21.049,17.763,24.368v36.761
			c-35.687,6.52-62.577,35.914-66.028,71.924H105.75c-32.235,0-58.459,26.225-58.459,58.459v24.16
			c0,32.234,26.225,58.459,58.459,58.459v-15.672c-23.593,0-42.785-19.194-42.785-42.785v-24.16
			c0-23.592,19.194-42.785,42.785-42.785h323.441v-15.673H409.655z M192.522,25.6c0-5.473,4.453-9.927,9.927-9.927
			c5.473,0,9.927,4.453,9.927,9.927c0,5.473-4.453,9.927-9.927,9.927C196.975,35.527,192.522,31.073,192.522,25.6z"/>
	</g>
</g>
<g>
	<g>
		<path d="M429.191,198.008v-15.673H108.408v15.673h14.818v93.887c0,80.448,65.449,145.897,145.897,145.897
			s145.897-65.449,145.897-145.897v-78.736h-15.673v39.777c-10.08-1.23-16.071-4.828-22.799-8.875
			c-9.015-5.423-19.234-11.57-38.78-11.57c-19.547,0-29.766,6.147-38.781,11.57c-8.32,5.005-15.507,9.328-30.703,9.328
			c-15.197,0-22.383-4.323-30.704-9.328c-9.016-5.423-19.237-11.57-38.783-11.57c-19.547,0-29.767,6.147-38.784,11.57
			c-6.343,3.815-12.037,7.228-21.112,8.637v-54.69H429.191z M269.122,422.119c-41.393,0-78.334-19.414-102.203-49.613h204.405
			C347.455,402.705,310.514,422.119,269.122,422.119z M168.089,257.491c8.322-5.005,15.508-9.328,30.704-9.328
			c15.196,0,22.383,4.323,30.704,9.328c9.016,5.423,19.237,11.57,38.784,11.57c19.546,0,29.766-6.147,38.781-11.57
			c8.321-5.005,15.507-9.328,30.703-9.328c15.196,0,22.381,4.323,30.702,9.328c7.711,4.638,16.323,9.794,30.878,11.192v23.212
			c0,23.631-6.329,45.811-17.378,64.937H156.277c-11.049-19.126-17.378-41.306-17.378-64.937v-23.388
			C152.444,266.887,160.679,261.949,168.089,257.491z"/>
	</g>
</g>
<g>
	<g>
		<path d="M73.536,451.458v15.673h21.676L133.18,512h271.885l37.967-44.869h21.676v-15.673H73.536z M397.795,496.327H140.449
			l-24.705-29.195H422.5L397.795,496.327z"/>
	</g>
</g>
<g>
</g>
<g>
</g>
<g>
</g>
<g>
</g>
<g>
</g>
<g>
</g>
<g>
</g>
<g>
</g>
<g>
</g>
<g>
</g>
<g>
</g>
<g>
</g>
<g>
</g>
<g>
</g>
<g>
</g>
</svg>
