<?xml version="1.0" encoding="iso-8859-1"?>
<!-- Generator: Adobe Illustrator 19.0.0, SVG Export Plug-In . SVG Version: 6.00 Build 0)  -->
<svg version="1.1" id="Layer_1" xmlns="http://www.w3.org/2000/svg" xmlns:xlink="http://www.w3.org/1999/xlink" x="0px" y="0px"
	 viewBox="0 0 511.999 511.999" style="enable-background:new 0 0 511.999 511.999;" xml:space="preserve">
<g>
	<g>
		<path d="M60.634,451.525v15.656h21.652l37.924,44.818h271.58l37.924-44.818h21.652v-15.656H60.634z M384.528,496.344H127.471
			l-24.676-29.164h306.41L384.528,496.344z"/>
	</g>
</g>
<g>
	<g>
		<path d="M288.725,0l-11.071,11.072c13.469,13.468,14.833,34.517,4.113,49.534c-7.339-5.01-16-7.71-25.08-7.71
			c-11.918,0-23.122,4.64-31.549,13.068c-8.428,8.427-13.068,19.631-13.068,31.55c0,11.917,4.64,23.122,13.068,31.549
			c8.698,8.695,20.123,13.044,31.548,13.044c11.426,0,22.852-4.349,31.551-13.048c15.606-15.607,17.201-39.99,4.803-57.404
			C309.698,50.435,308.27,19.545,288.725,0z M277.167,117.99c-11.295,11.292-29.668,11.291-40.957,0
			c-5.47-5.469-8.483-12.743-8.483-20.478c0-7.736,3.013-15.009,8.483-20.479c5.469-5.469,12.742-8.482,20.478-8.482
			c7.735,0,15.009,3.013,20.478,8.483C288.457,88.325,288.457,106.699,277.167,117.99z"/>
	</g>
</g>
<g>
	<g>
		<path d="M390.356,148.368H121.643c-20.779,0-37.685,16.905-37.685,37.685V444.68h344.084V186.053
			C428.042,165.273,411.137,148.368,390.356,148.368z M99.614,260.023c5.199,1.774,11.564,3.027,19.531,3.027
			c19.655,0,29.838-7.405,38.821-13.938c8.072-5.871,15.045-10.941,29.601-10.941c14.563,0,21.537,5.071,29.611,10.943
			c8.982,6.533,19.163,13.936,38.81,13.936c19.647,0,29.827-7.404,38.81-13.936c8.075-5.873,15.049-10.945,29.613-10.945
			c14.564,0,21.538,5.071,29.614,10.944c8.981,6.532,19.162,13.936,38.809,13.936c7.975,0,14.347-1.256,19.552-3.034v67.495H99.614
			V260.023z M412.386,429.024H99.614v-85.859h312.772V429.024z M412.386,243.03c-4.684,2.446-10.59,4.363-19.552,4.363
			c-14.556,0-21.528-5.07-29.6-10.941c-8.983-6.534-19.166-13.938-38.821-13.938s-29.838,7.405-38.821,13.938
			c-8.072,5.871-15.045,10.941-29.601,10.941s-21.529-5.07-29.601-10.941c-8.983-6.534-19.166-13.938-38.82-13.938
			c-19.647,0-29.828,7.404-38.81,13.936c-8.075,5.873-15.049,10.944-29.614,10.944c-8.956,0-14.855-1.912-19.531-4.353v-56.986
			c-0.001-12.148,9.882-22.031,22.028-22.031h268.714c12.147,0,22.03,9.883,22.03,22.029V243.03z"/>
	</g>
</g>
<g>
</g>
<g>
</g>
<g>
</g>
<g>
</g>
<g>
</g>
<g>
</g>
<g>
</g>
<g>
</g>
<g>
</g>
<g>
</g>
<g>
</g>
<g>
</g>
<g>
</g>
<g>
</g>
<g>
</g>
</svg>
