<?xml version="1.0" encoding="utf-8"?>
<!-- Generator: Adobe Illustrator 25.2.0, SVG Export Plug-In . SVG Version: 6.00 Build 0)  -->
<svg version="1.1" id="Layer_1" xmlns="http://www.w3.org/2000/svg" xmlns:xlink="http://www.w3.org/1999/xlink" x="0px" y="0px"
	 viewBox="0 0 1000 200" style="enable-background:new 0 0 1000 200;" xml:space="preserve">
<style type="text/css">
	.st0{fill:#FFFFFF;}
	.st1{fill:#15803D;}
	.st2{fill:#22C55E;}
</style>
<g>
	<g>
		<path class="st0" d="M247.5,83.4c2.6,12.8,2.1,25.2-0.8,36.7c-1.8,7.1-4.6,13.8-8.2,20c-13.8,23.9-39.7,40-69.3,40h-140v-140
			c0-11,9-20,20-20h20v120h100c14.8,0,27.7-8,34.7-20c3.9-6.7,5.9-14.7,5.2-23.2c-1.5-19.6-17.5-35.4-37.1-36.7
			c-23.4-1.6-42.8,16.9-42.8,39.9c0,0.1,0,0.1,0,0.2c0.1,10.9-8.5,19.8-19.4,19.8H91.8c-1.6-6.4-2.5-13.1-2.5-20
			c0-50.3,46.5-89.8,98.8-77.9C218.1,29.1,241.4,53.2,247.5,83.4z"/>
		<path class="st0" d="M629.2,160.1v20h-60c-11,0-20-9-20-20v-59.3c0-20.7-16.9-39.4-37.5-40.7c-23.2-1.4-42.5,17-42.5,39.9h60v20
			c0,11-9,20-20,20h-40v20c0,11-9,20-20,20h-20v-80c0-29.6,16.1-55.5,40-69.3c11.8-6.8,25.4-10.7,40-10.7s28.2,3.9,40,10.7
			c23.9,13.8,40,39.7,40,69.3v40h20C620.3,140.1,629.2,149.1,629.2,160.1z"/>
		<path class="st0" d="M309.2,20.1v160h-20c-11,0-20-9-20-20v-120c0-11,9-20,20-20H309.2z"/>
		<path class="st1" d="M379.8,20.7c1.2,11.5,2.1,35.9-11.1,49c-13.2,13-37.5,12.2-49,11.1c-1.2-11.4-2.1-35.9,11.1-49
			C344,18.7,368.3,19.5,379.8,20.7z"/>
		<g>
			<path class="st2" d="M319.9,96.9c15.9-1.6,49.5-3,67.5,15.3c18,18.2,16.9,51.7,15.3,67.5c-15.8,1.6-49.5,3-67.5-15.3
				C317.2,146.1,318.3,112.6,319.9,96.9z"/>
		</g>
	</g>
	<g>
		<g>
			<path class="st2" d="M689.1,52.1h-24.7v-25c0-2-0.7-3.7-2.1-5.2c-1.4-1.5-3.2-2.2-5.3-2.2s-4,0.7-5.4,2.2
				c-1.5,1.5-2.2,3.2-2.2,5.2v25h-17.8c-2,0-3.7,0.7-5.1,2c-1.4,1.3-2.1,3-2.1,4.9s0.7,3.7,2.1,5.1c1.4,1.4,3.1,2.1,5.1,2.1h17.8
				V152c0,7.4,1.1,13.1,3.2,17.1c2.1,4,4.8,6.7,7.9,8.3c3.1,1.6,6.2,2.5,9.2,2.7c3,0.2,5.2,0.4,6.7,0.4c3.6,0,6.8-0.8,9.4-2.3
				c2.6-1.6,4-3.5,4-5.8c0-1.8-0.5-3.3-1.6-4.5c-1.1-1.2-2.4-1.7-3.8-1.7c-1.3,0-2.5,0.2-3.6,0.6c-1.1,0.4-2.3,0.6-3.6,0.6
				c-2,0-4-0.4-5.9-1.1c-2-0.7-3.6-2.3-4.8-4.6c-1.2-2.3-1.9-5.8-1.9-10.4V66.2h24.7c2,0,3.6-0.7,4.9-2c1.3-1.3,2-3,2-4.9
				c0-2-0.7-3.7-2-5.1S691.1,52.1,689.1,52.1z"/>
		</g>
		<g>
			<path class="st2" d="M811,63.9c-5.3-5-11.3-8.8-18.2-11.4c-6.8-2.6-13.9-3.8-21.1-3.8c-9.9,0-19.3,2.7-28.1,8
				c-8.8,5.4-16,13-21.5,22.9c-5.5,9.9-8.3,21.8-8.3,35.9c0,13,2.7,24.4,8.2,34.1c5.4,9.7,13,17.3,22.6,22.8
				c9.6,5.4,20.9,8.2,33.8,8.2c9.4,0,18.1-2.2,26-6.6c7.9-4.4,14.3-9.5,19.3-15.5c1.6-1.5,2.5-3.2,2.5-5.2c0-1.6-0.6-3.1-1.9-4.5
				c-1.2-1.3-2.8-2-4.6-2c-1.8,0-3.5,0.7-5.2,2.2c-2.3,3-5.2,5.8-8.8,8.5c-3.5,2.7-7.6,4.9-12.2,6.6c-4.6,1.6-9.7,2.5-15.3,2.5
				c-10.6,0-19.5-2.3-27-6.9c-7.4-4.6-13.1-10.9-17.1-18.8c-3.9-7.8-5.9-16.6-5.9-26.2h93.5c2,0,3.7-0.7,5.2-2.1
				c1.5-1.4,2.2-3.1,2.2-5.1c-0.2-9.6-1.9-18-5.2-25.2C820.6,75,816.3,68.9,811,63.9z M732.1,91.3c2.6-6.5,6.1-11.9,10.3-16.1
				c4.2-4.2,8.9-7.3,14.1-9.3c5.2-2,10.3-3,15.2-3c6.6,0,12.9,1.4,18.9,4.3c6,2.9,11.2,7,15.5,12.4c4.3,5.4,6.8,11.9,7.4,19.7v2
				h-84.2C729.9,97.7,730.9,94.4,732.1,91.3z"/>
		</g>
		<g>
			<path class="st2" d="M968.7,53.9c-1.4-1.5-3.2-2.2-5.3-2.2c-2.3,0-4.2,0.7-5.6,2.2c-1.4,1.5-2.1,3.3-2.1,5.4v15.3
				c-2.4-4.4-5.5-8.5-9.4-12c-4.6-4.3-10-7.7-16.2-10.1c-6.2-2.5-12.8-3.7-19.9-3.7c-10.9,0-20.7,2.8-29.4,8.4
				c-8.7,5.6-15.7,13.3-20.8,23.1c-5.1,9.8-7.7,21.1-7.7,34c0,12.5,2.5,23.8,7.5,33.9c5,10.1,12,18,20.8,23.7
				c8.8,5.8,18.8,8.7,29.8,8.7c7.1,0,13.6-1.3,19.7-3.8c6-2.6,11.3-5.8,15.7-9.9c4.1-3.7,7.4-7.8,9.9-12.2v16.1c0,2,0.7,3.7,2.1,5.2
				c1.4,1.5,3.3,2.2,5.6,2.2c2,0,3.7-0.7,5.2-2.2c1.5-1.5,2.2-3.2,2.2-5.2V59.3C970.8,57.2,970.1,55.3,968.7,53.9z M935.1,159.8
				c-6.8,4.5-14.5,6.8-23.2,6.8c-8.7,0-16.5-2.3-23.4-6.8c-6.8-4.5-12.2-10.8-16-18.8c-3.8-8-5.7-16.9-5.7-26.8
				c0-10.1,1.9-19,5.8-26.7c3.9-7.7,9.2-13.8,16.1-18.2c6.8-4.4,14.6-6.6,23.1-6.6c8.7,0,16.5,2.3,23.2,6.8
				c6.8,4.5,12.1,10.7,16,18.5c3.9,7.8,5.8,16.5,5.8,26.1c0,9.9-1.9,18.8-5.8,26.8C947.2,149,941.9,155.3,935.1,159.8z"/>
		</g>
	</g>
</g>
</svg>
