<?xml version="1.0" encoding="utf-8"?>
<!-- Generator: Adobe Illustrator 25.2.0, SVG Export Plug-In . SVG Version: 6.00 Build 0)  -->
<svg version="1.1" id="Layer_1" xmlns="http://www.w3.org/2000/svg" xmlns:xlink="http://www.w3.org/1999/xlink" x="0px" y="0px"
	 viewBox="0 0 1000 200" style="enable-background:new 0 0 1000 200;" xml:space="preserve">
<style type="text/css">
	.st0{fill:#27272A;}
	.st1{fill:#22C55E;}
	.st2{fill:#16A34A;}
</style>
<g>
	<g>
		<path class="st0" d="M659.6,148.2v19.1c0,5.4-4.3,9.7-9.7,9.7h-57.7c-5.4,0-9.7-4.3-9.7-9.7V32.6c0-5.4,4.3-9.7,9.7-9.7h19.1
			c5.4,0,9.7,4.3,9.7,9.7v96.2c0,5.4,4.3,9.7,9.7,9.7h19.1C655.3,138.5,659.6,142.9,659.6,148.2z"/>
	</g>
	<g>
		<path class="st0" d="M100.8,148.2v19.1c0,5.4-4.3,9.7-9.7,9.7H33.4c-5.4,0-9.7-4.3-9.7-9.7V32.6c0-5.4,4.3-9.7,9.7-9.7h19.1
			c5.4,0,9.7,4.3,9.7,9.7v96.2c0,5.4,4.3,9.7,9.7,9.7h19.1C96.4,138.5,100.8,142.9,100.8,148.2z"/>
	</g>
	<g>
		<path class="st0" d="M254.3,151.7c-14.1,15.6-34.5,25.4-57.2,25.4c-42.6,0-77.1-34.5-77.1-77.1c0-42.6,34.5-77.1,77.1-77.1
			c17.1,0,33,5.6,45.8,15.1c-8.6,10.3-13.1,20.4-13.7,30.6c-0.3,3.9,0,7.5,0.7,11c-6.8-10.9-18.9-18.1-32.7-18.1
			c-21.3,0-38.5,17.2-38.5,38.5c0,21.3,17.2,38.5,38.5,38.5c8.2,0,15.8-2.6,22-6.9c1.6,3.5,3.8,7.6,7.6,11.2
			c6.3,6.2,14.9,9.2,25.6,9c0.3,0,0.5,0,0.8,0C253.5,151.8,253.9,151.8,254.3,151.7z"/>
	</g>
	<path class="st0" d="M408.7,93.6c-3.3,3.6-3.3,9.2,0,12.8c3.5,3.9,6.7,8.3,9.3,12.9c6.6,11.3,10.3,24.5,10.3,38.5v9.6
		c0,5.3-4.3,9.6-9.6,9.6h-19.3c-5.3,0-9.6-4.3-9.6-9.6c0-13.3-5.4-25.3-14.1-34.1c-8.7-8.7-20.8-14.1-34.1-14.1
		c-2.7,0-5.1,1.1-6.8,2.8c-1.7,1.7-2.8,4.1-2.8,6.8v38.5c0,5.3-4.3,9.6-9.6,9.6h-0.2c0.4-1.2,0.5-2.5,0.2-3.8c0-0.1-0.1-0.2-0.1-0.3
		c-0.1-0.5-0.4-1.1-0.6-1.5c-1.8-3.4-3.1-10.7-4.2-16.5c-1.4-7.6-3-16.3-6.2-24.3c-3.9-9.8-9.9-16.8-17.5-20.8
		c-0.1-0.1-0.2-0.1-0.3-0.1V32.6c0-5.3,4.3-9.6,9.6-9.6h19.3c5.3,0,9.6,4.3,9.6,9.6v38.5c0,5.3,4.3,9.6,9.6,9.6
		c13.3,0,25.3-5.4,34.1-14.1c8.7-8.7,14.1-20.8,14.1-34.1c0-2.7,1.1-5.1,2.8-6.8c1.7-1.8,4.1-2.8,6.8-2.8h19.3
		c5.3,0,9.6,4.3,9.6,9.6v9.6c0,14-3.8,27.2-10.3,38.5C415.4,85.3,412.3,89.7,408.7,93.6z"/>
	<g>
		<path class="st0" d="M524.7,26.2c-6-2.1-12.5-3.3-19.3-3.3c-6.8,0-13.2,1.2-19.3,3.3c-22.5,7.9-38.5,29.3-38.5,54.5v86.7
			c0,5.4,4.3,9.7,9.7,9.7h19.1c5.4,0,9.7-4.3,9.7-9.7v-19.1c0-5.4,4.3-9.7,9.7-9.7H515c5.4,0,9.7,4.3,9.7,9.7v19.1
			c0,5.4,4.3,9.7,9.7,9.7h19.1c5.4,0,9.7-4.3,9.7-9.7V80.7C563.3,55.6,547.2,34.1,524.7,26.2z M486.2,90.3v-9.1
			c0-10.5,8.1-19.4,18.6-19.7c11-0.4,20,8.4,20,19.3v9.6c0,5.4-4.3,9.7-9.7,9.7h-19.1C490.5,100,486.2,95.7,486.2,90.3z"/>
	</g>
	<g>
		<path class="st1" d="M743,169.6c0,1.9-0.7,3.4-2.1,4.5c-1.4,1.1-3.7,1.6-6.9,1.4l-6.6-0.5c-12-0.8-20.9-4.5-26.6-11
			c-5.8-6.5-8.6-16.5-8.6-29.9v-63h-18c-1.9,0-3.4-0.5-4.5-1.5c-1.1-1-1.7-2.4-1.7-4.1c0-1.7,0.6-3.2,1.7-4.3
			c1.1-1.1,2.6-1.7,4.5-1.7h18V30.3c0-2.4,0.6-4.2,1.9-5.4c1.3-1.3,3-1.9,5.2-1.9c2.2,0,4,0.6,5.3,1.9c1.3,1.3,2,3.1,2,5.4v29.3
			h28.6c2,0,3.6,0.6,4.7,1.7c1.1,1.1,1.7,2.5,1.7,4.3c0,1.7-0.6,3.1-1.7,4.1c-1.1,1-2.7,1.5-4.7,1.5h-28.6v63.7
			c0,9.8,1.9,16.8,5.7,20.9c3.8,4.2,9.7,6.6,17.7,7.2l6.4,0.5C740.8,164,743,166,743,169.6z"/>
		<path class="st1" d="M855.6,151.5c1,1.2,1.5,2.6,1.5,4.1c0,3.5-2.7,6.9-8,10.2c-11.4,6.8-23.4,10.2-36,10.2
			c-17.5,0-31.3-5.3-41.4-15.9c-10.1-10.6-15.1-25.1-15.1-43.5c0-11.8,2.2-22.3,6.7-31.4c4.5-9.1,10.8-16.1,18.9-21.1
			c8.1-5,17.5-7.5,28-7.5c14.8,0,26.5,4.8,35.1,14.3c8.6,9.5,12.9,22.7,12.9,39.4c0,2.8-0.6,4.9-1.9,6.3c-1.3,1.3-3.3,2-6.2,2h-78.8
			c0.5,14.5,4.3,25.6,11.4,33.1s17.1,11.4,30.1,11.4c6.8,0,12.5-0.9,17-2.7c4.6-1.8,9.5-4.2,14.7-7.2c3.5-2.4,5.9-3.5,7.3-3.5
			S854.5,150.4,855.6,151.5z M783.7,79c-6.6,6.9-10.6,16.6-11.8,29.1H845c-0.3-12.6-3.5-22.4-9.5-29.2c-6-6.9-14.4-10.3-25.3-10.3
			C799.2,68.6,790.4,72.1,783.7,79z"/>
		<path class="st1" d="M964.9,67.6c6.9,7.3,10.3,18.2,10.3,32.9V168c0,2.2-0.6,4-1.9,5.3c-1.3,1.3-3,2-5.2,2c-2.2,0-3.9-0.7-5.2-2
			c-1.3-1.3-1.9-3.1-1.9-5.3v-14.2c-3.3,7.1-8.1,12.6-14.4,16.4c-6.3,3.9-13.6,5.8-21.8,5.8c-7.4,0-14.2-1.5-20.2-4.5
			c-6.1-3-10.9-7.1-14.6-12.3c-3.6-5.2-5.4-11-5.4-17.5c-0.2-8.7,2-15.4,6.4-20.2c4.4-4.8,11.8-8.2,22-10.3
			c10.3-2,24.6-3.1,43.1-3.1h5v-8.8c0-10.4-2.1-18-6.4-22.8c-4.3-4.8-11-7.2-20.1-7.2c-11.7,0-22.8,3.1-33.4,9.2
			c-0.5,0.3-1.7,1.1-3.7,2.5c-2,1.3-3.7,2-5.1,2c-1.6,0-2.9-0.6-3.9-1.8c-1-1.2-1.5-2.6-1.5-4.4c0-3.5,2.8-6.9,8.3-10.2
			c5.5-3.2,11.7-5.6,18.5-7.3c6.8-1.7,13.5-2.6,20.1-2.6C947.7,56.8,958,60.4,964.9,67.6z M951.2,153.1c6.5-6.9,9.8-15.8,9.8-26.5
			v-7.8h-4.5c-15.1,0-26.7,0.6-34.8,1.9c-8,1.3-13.7,3.4-17,6.5c-3.3,3.1-5,7.5-5,13.4c0,6.6,2.5,12.1,7.6,16.4
			c5,4.3,11.3,6.5,18.7,6.5C936.2,163.5,944.6,160,951.2,153.1z"/>
	</g>
	<path class="st2" d="M317.2,174.5c0-0.2-0.1-0.3-0.2-0.4c-2.1-4-3.4-10.6-4.8-18.1c-1.4-7.5-2.9-15.8-5.9-23.2
		c-2.7-6.7-6.7-12.8-12.9-16.8c-0.7-0.5-1.4-0.9-2.2-1.3c-1-0.5-2-1-3.1-1.4c-7-2.7-16.1-3.1-28-0.4c-2.6-0.8-5.3-1.4-7.9-1.9
		c6.6-2,12.8-4.6,18.7-7.7c3.3-1.8,6.5-3.7,9.6-5.7c2.5-0.6,5-0.9,7.5-1v-3.3c-0.6,0-1.1,0-1.7,0.1c0.6-0.4,1.1-0.9,1.7-1.4v-4.3
		c-2.8,2.5-5.9,4.8-9,6.9c-0.1,0.1-0.3,0.1-0.3,0.2c-3,2-6.1,3.8-9.3,5.5c-8,4.2-16.6,7.4-25.9,9.6c-2.3-0.1-4.6-0.2-6.8-0.1
		c3-2.1,5.9-4.4,8.7-7c13.2-3.2,21.4-8.4,26.2-15c4.8-6.6,5.9-14.4,5.2-22.2c-0.6-7.8-2.9-15.6-4.9-22.7c-2-7.1-3.8-13.4-3.7-17.8
		c0-0.2,0-0.3-0.1-0.5c-0.1-0.5-0.6-1-1.1-1.2c-0.5-0.2-1.1-0.1-1.6,0.3c-22.5,17.8-30.1,32.4-31,45.1c-0.8,12.3,4.6,22.5,8.1,31.8
		c-4.2,3.9-8.7,7.1-13.4,9.7c-1.7,0.3-3.4,0.6-5.1,1c-8.2,1.9-16,5.5-23.2,10.5c-0.1,0-0.1,0.1-0.2,0.1c-3,2.1-5.9,4.5-8.7,7.1
		c-0.3,0.3-0.5,0.7-0.5,1.1l0,0.1c0,0.4,0.1,0.9,0.5,1.2c0.3,0.3,0.7,0.5,1.2,0.5c0.4,0,0.9-0.2,1.2-0.5c2.6-2.5,5.3-4.7,8.1-6.6
		c3.3-0.9,6.8-1.2,10.3-1c3.4,0.2,6.7,0.9,9.9,2.1c1.5,3.7,3.6,8.8,7.8,13c4.6,4.5,11.6,7.8,22.4,7.4c0.5,0,1-0.3,1.3-0.7
		c0.3-0.4,0.4-0.9,0.3-1.4c-0.1-0.3-0.2-0.5-0.4-0.7c-4-4.3-9.5-24.2-30-20.6c-3.6-1.4-7.4-2.2-11.1-2.4c-1.1-0.1-2.2-0.1-3.4,0
		c4.9-2.6,10-4.5,15.3-5.8c1.7-0.4,3.4-0.7,5.2-1c0,0,0,0,0,0c9.2-1.4,18.8-0.7,28.5,2.1c1.1,10.3,0.8,22.2,7.2,33.2
		c4.1,7,10.9,13.5,22.4,18.9c1.8,0.9,3.7,1.7,5.8,2.4c6,2.3,13,4.3,21.2,6c0.6,0.1,1.1-0.1,1.5-0.5
		C317.1,175.6,317.3,175,317.2,174.5z M237.9,69.2c0.7-11.1,7.2-24.2,27.4-40.8c0.5,4.6,1.8,9.8,3.4,15.5c1,3.5,2.1,7.2,3,10.9
		c0.9,3.7,1.5,7.4,1.8,11.1c0.6,7.3-0.4,14.1-4.6,20c-3.6,5-9.7,9.2-19.5,12.3c4-5.4,6.9-11.5,8.4-18c1-4.2,1.5-8.5,1.4-13
		c0-0.1,0-0.2,0-0.3c-0.2-0.9-1-1.4-1.8-1.3c-0.9,0.1-1.5,0.8-1.5,1.7c0,4.2-0.4,8.3-1.3,12.2c-1.6,6.9-4.8,13.3-9.4,18.7
		C241.7,88.9,237.2,79.8,237.9,69.2z M249.7,143c-8.1-0.3-13.4-2.9-16.8-6.3c-3.3-3.2-5-7-6.4-10.4C241,124.7,245.1,136,249.7,143z
		 M293.5,166.6c-1.9-0.8-3.7-1.6-5.3-2.4c-10.1-4.9-16-10.7-19.5-16.8c-5.5-9.5-5.6-20.1-6.6-30.3c8.5,3.5,15.8,8.9,21.7,15.8
		c1.6,1.9,3,3.8,4.4,5.9c1.4,2.2,2.7,4.5,3.9,6.8c0.3,0.5,0.8,0.9,1.4,0.9h0.1c0.2,0,0.4,0,0.6-0.1c0.8-0.3,1.3-1.1,1.1-1.9
		c0-0.1-0.1-0.3-0.1-0.4c-0.5-1-1-2-1.6-3c-1.6-2.9-3.4-5.6-5.3-8.1c-0.6-0.8-1.2-1.6-1.9-2.3c-5.6-6.6-12.4-11.9-20.3-15.6
		c9.5-1.5,16.7-0.8,22.2,1.6c0.5,0.3,1.1,0.5,1.6,0.8c1.3,0.7,2.6,1.5,3.7,2.4c4.5,3.5,7.5,8.4,9.8,13.9c1.4,3.5,2.5,7.3,3.4,11.1
		c0.9,3.8,1.6,7.7,2.3,11.4c1.1,6.1,2.3,11.5,4,16C305.3,170.8,298.9,168.8,293.5,166.6z"/>
	<g>
		<path class="st1" d="M249.7,143c-8.1-0.3-13.4-2.9-16.8-6.3c-3.3-3.2-5-7-6.4-10.4C241,124.7,245.1,136,249.7,143z"/>
		<path class="st1" d="M313,172.5c-26.4-6-38.5-15.1-44.3-25.1c-5.5-9.5-5.6-20.1-6.6-30.3c8.5,3.5,15.8,8.9,21.7,15.8
			c3.2,3.8,6,8.1,8.3,12.7c0.3,0.5,0.8,0.9,1.4,0.9c0.2,0,0.4,0,0.7-0.1c0.8-0.3,1.3-1.1,1.1-1.9c0-0.2-0.1-0.3-0.1-0.4
			c-2.4-4.9-5.3-9.4-8.8-13.4c-5.6-6.6-12.4-11.9-20.3-15.6c10.5-1.7,18.1-0.6,23.8,2.4c6.6,3.4,10.7,9.3,13.5,16.4
			c1.4,3.5,2.5,7.3,3.4,11.1c0.9,3.8,1.6,7.7,2.3,11.5C310.1,162.6,311.2,168,313,172.5z"/>
		<path class="st1" d="M268.9,85.9c-3.6,5-9.7,9.2-19.5,12.3c4-5.4,6.9-11.5,8.4-18c1-4.2,1.5-8.5,1.4-13c0-0.1,0-0.2,0-0.3
			c-0.2-0.8-1-1.4-1.8-1.3c-0.9,0.1-1.5,0.8-1.5,1.7c0,4.2-0.4,8.3-1.3,12.2c-1.7,6.9-4.8,13.3-9.4,18.7c-3.5-9.2-8-18.4-7.3-29
			c0.7-11.1,7.2-24.2,27.4-40.8c0.5,4.6,1.8,9.8,3.4,15.5c1,3.5,2.1,7.2,3,10.9c0.9,3.7,1.6,7.5,1.9,11.1
			C274.1,73.2,273.1,80.1,268.9,85.9z"/>
	</g>
</g>
</svg>
