<?xml version="1.0" encoding="utf-8"?>
<!-- Generator: Adobe Illustrator 25.2.0, SVG Export Plug-In . SVG Version: 6.00 Build 0)  -->
<svg version="1.1" id="Layer_1" xmlns="http://www.w3.org/2000/svg" xmlns:xlink="http://www.w3.org/1999/xlink" x="0px" y="0px"
	 viewBox="0 0 1000 200" style="enable-background:new 0 0 1000 200;" xml:space="preserve">
<style type="text/css">
	.st0{fill:#111827;}
	.st1{fill:#22C55E;}
	.st2{fill-rule:evenodd;clip-rule:evenodd;fill:#22C55E;}
</style>
<g>
	<path class="st0" d="M239.4,85.1c2.5,12.5,2.1,24.6-0.8,35.7c-1.8,6.9-4.5,13.4-8,19.5c-13.5,23.3-38.6,38.9-67.4,38.9H27.1V43
		c0-10.7,8.7-19.5,19.5-19.5H66v116.7h97.3c14.4,0,27-7.8,33.7-19.5c3.8-6.6,5.7-14.3,5.1-22.6c-1.5-19.1-17-34.4-36.1-35.7
		c-22.7-1.6-41.6,16.4-41.6,38.8c0,0.1,0,0.1,0,0.2c0.1,10.6-8.3,19.2-18.9,19.2H87.9c-1.6-6.2-2.5-12.7-2.5-19.5
		c0-48.9,45.2-87.3,96.1-75.7C210.8,32.3,233.5,55.7,239.4,85.1z"/>
	<path class="st0" d="M396.8,23.5l-0.1,0.2l-37.6,60c-2.9-0.5-5.7-0.8-8.5-0.8c-9.4,0-18.8,2.7-27.9,8.2l-5.9-5.9l-0.4-0.4l-0.5-0.3
		c-0.8-0.5-1.7-0.9-2.5-1.2l0.9-1.4l31-49.4c3.6-5.7,9.8-9.1,16.5-9.1H396.8z"/>
	<path class="st0" d="M311.5,159.6l-12.1,19.3l-0.2,0.3H280c-10.7,0-19.5-8.7-19.5-19.5V42.9c0-10.7,8.7-19.5,19.5-19.5h19.5v82.1
		l4.7-7.4l5.8,5.4c-8.2,13.4-10.5,27.2-7.1,40.9l0,0.2l0,0.2C304.7,150.3,307.6,155.2,311.5,159.6z"/>
	<path class="st0" d="M610.8,159.7v19.5h-58.4c-10.7,0-19.5-8.7-19.5-19.5V102c0-20.1-16.4-38.3-36.5-39.5
		c-22.6-1.4-41.3,16.5-41.3,38.8h58.4v19.5c0,10.7-8.7,19.5-19.5,19.5h-38.9v19.5c0,10.7-8.7,19.5-19.5,19.5h-19.5v-77.8
		c0-28.8,15.7-53.9,38.9-67.4c11.4-6.6,24.7-10.4,38.9-10.4c14.2,0,27.5,3.8,38.9,10.4c23.3,13.5,38.9,38.6,38.9,67.4v38.9h19.5
		C602.1,140.2,610.8,148.9,610.8,159.7z"/>
	<path class="st1" d="M635.8,54.2h-46.2V24.9h127.3v29.2h-46.2V179h-34.9V54.2z"/>
	<path class="st1" d="M736.8,24.9h102.2v29.2h-67.3v30.9h57.2v29.2h-57.2v35.5h69.6V179H736.8V24.9z"/>
	<path class="st1" d="M861.2,24.9h35v59.3h41.8V24.9h35V179h-35v-64.3h-41.8V179h-35V24.9z"/>
	<g>
		<path class="st2" d="M397.8,168c-0.2-5.2-0.6-10.8-1.3-16.5l-16.1-0.9L397.8,168L397.8,168z M307.3,94.7l8.7,8.2
			c-9.4,13.8-11.9,27.3-8.6,40.5c2.4,7.5,7.2,13.5,13.4,18.3l0.8-52.8l3.9,3.8l-1.1,51.5c5.3,3.5,11.5,6.2,18,8.3l-3.2-46l3.9,3.8
			l3,43.3c6.7,1.9,13.6,3.3,20.5,4.2l-1.6-25.5l3.9,3.8l1.3,22.2c10,1.2,19.7,1.5,27.7,1.5l0.1,0.1v-6.6
			c-28.7-28.7-56.4-56.4-84.6-84.6C308.1,85.3,304.7,91.5,307.3,94.7L307.3,94.7z M396,147.9c-1-6.9-2.3-13.9-4.3-20.6l-37.2-2.5
			l21.9,21.9L396,147.9L396,147.9z M390.7,123.7c-2.2-6.6-4.9-12.7-8.4-18l-45.8,1l14.2,14.2L390.7,123.7L390.7,123.7z M379.7,102.1
			c-4.7-6-10.6-10.6-18-13c-12-3-24.2-1.3-36.7,6.1l7.6,7.6L379.7,102.1L379.7,102.1z"/>
	</g>
</g>
</svg>
