<?xml version="1.0" encoding="utf-8"?>
<!-- Generator: Adobe Illustrator 25.2.0, SVG Export Plug-In . SVG Version: 6.00 Build 0)  -->
<svg version="1.1" id="Layer_1" xmlns="http://www.w3.org/2000/svg" xmlns:xlink="http://www.w3.org/1999/xlink" x="0px" y="0px"
	 viewBox="0 0 862.3 325.8" style="enable-background:new 0 0 862.3 325.8;" xml:space="preserve">
<style type="text/css">
	.st0{fill:#1E293B;}
	.st1{display:none;fill:#1E293B;}
	.st2{fill:#059669;}
	.st3{enable-background:new    ;}
</style>
<g>
	<polygon class="st0" points="393.9,291.1 393.9,311.1 294.5,311.1 294.5,211.3 314.5,211.3 314.5,291.1 	"/>
	<polygon class="st0" points="114.5,211.3 114.5,231.3 15,231.3 15,131.3 35,131.3 35,211.3 	"/>
	<polygon class="st1" points="114.5,211.2 114.5,231.2 66.3,231.2 66.3,131.5 86.3,131.5 86.3,211.2 	"/>
	<path class="st0" d="M364.5,14c-12.3,0-24.4,3.2-35,9.4c-21.6,12.5-35,35.7-35,60.6v107.3h20v-59.9h60v59.9h20V14H364.5z
		 M374.5,111.5h-60V84c0-27.6,22.4-50,50-50h10V111.5z"/>
	<path class="st2" d="M274.5,84c0,47-52.2,93-70,107.3c-17.8-14.3-70-60.4-70-107.3c0-38.6,31.4-70,70-70S274.5,45.4,274.5,84z"/>
	<path class="st0" d="M165.3,301.5c-9.7,5-20.1,8.1-30.9,9.3v-20.2c25.5-3.7,47.3-21.2,56-46l4.7-13.3h-60.7v-20h140v20h-60.7
		l4.7,13.3c8.7,24.7,30.6,42.3,56,46v20.2c-10.8-1.2-21.1-4.3-30.9-9.3c-12.1-6.2-22.9-15.3-31.1-26.2l-8-10.7l-8,10.7
		C188.3,286.3,177.5,295.3,165.3,301.5z"/>
</g>
<g class="st3">
	<path class="st2" d="M525.1,259.6c-3.6,3.3-8.1,5.8-13.5,7.5c-5.4,1.7-10.9,2.6-16.8,2.6c-13.4,0-23.8-3.6-31.1-10.9
		c-7.3-7.3-10.9-17.5-10.9-30.8v-86.7h-25.6V125h25.6V93.6h19.4V125h43.6v16.4h-43.6v85.6c0,8.5,2.1,15,6.4,19.5
		c4.3,4.5,10.4,6.7,18.4,6.7c4,0,7.9-0.6,11.6-1.9c3.7-1.3,7-3.1,9.7-5.5L525.1,259.6z"/>
	<path class="st2" d="M680,202.7H560c1.1,14.9,6.8,26.9,17.2,36.1c10.4,9.2,23.4,13.8,39.2,13.8c8.9,0,17.1-1.6,24.5-4.8
		c7.4-3.2,13.9-7.9,19.4-14l10.9,12.5c-6.4,7.6-14.3,13.4-23.8,17.4c-9.5,4-20,6-31.5,6c-14.7,0-27.8-3.1-39.1-9.4
		c-11.4-6.3-20.2-14.9-26.6-26c-6.4-11.1-9.5-23.6-9.5-37.6c0-14,3-26.5,9.1-37.6c6.1-11.1,14.4-19.7,25.1-25.9
		c10.6-6.2,22.6-9.3,35.8-9.3c13.3,0,25.2,3.1,35.7,9.3c10.5,6.2,18.8,14.8,24.8,25.8c6,11,9,23.6,9,37.7L680,202.7z M576,153.7
		c-9.4,8.8-14.7,20.3-15.9,34.5h101.7c-1.3-14.2-6.6-25.7-15.9-34.5c-9.4-8.8-21-13.2-35-13.2C596.9,140.5,585.3,144.9,576,153.7z"
		/>
	<path class="st2" d="M835.7,139.6c10.6,10.5,15.9,25.7,15.9,45.7v83.1h-19.4v-81.2c0-14.9-3.7-26.3-11.2-34.1
		c-7.5-7.8-18.1-11.7-31.9-11.7c-15.4,0-27.7,4.6-36.7,13.8c-9,9.2-13.5,21.9-13.5,38v75.2h-19.4V66.1h19.4v83.9
		c5.3-8.4,12.5-14.8,21.8-19.4c9.3-4.5,19.9-6.8,31.9-6.8C810.8,123.9,825.1,129.1,835.7,139.6z"/>
</g>
</svg>
