<?xml version="1.0" encoding="utf-8"?>
<!-- Generator: Adobe Illustrator 25.2.0, SVG Export Plug-In . SVG Version: 6.00 Build 0)  -->
<svg version="1.1" id="Layer_1" xmlns="http://www.w3.org/2000/svg" xmlns:xlink="http://www.w3.org/1999/xlink" x="0px" y="0px"
	 viewBox="0 0 300 300" style="enable-background:new 0 0 300 300;" xml:space="preserve">
<style type="text/css">
	.st0{fill:#FFFFFF;}
	.st1{fill:#059669;}
	.st2{fill:#1E293B;}
</style>
<rect x="10" y="10" class="st0" width="280" height="280"/>
<path class="st1" d="M203,91.4c0,35.3-39.3,70-52.7,80.8c-13.4-10.8-52.7-45.4-52.7-80.8c0-29,23.6-52.7,52.7-52.7
	C179.4,38.7,203,62.3,203,91.4z"/>
<path class="st2" d="M120.9,255c-7.3,3.7-15.1,6.1-23.2,7v-15.2c19.2-2.8,35.6-16,42.1-34.6l3.5-10H97.7v-15H203v15h-45.7l3.5,10
	c6.6,18.6,23,31.8,42.1,34.6V262c-8.1-0.9-15.9-3.2-23.2-7c-9.1-4.7-17.2-11.5-23.4-19.7l-6-8l-6,8C138.1,243.6,130,250.4,120.9,255
	z"/>
</svg>
